<?xml version="1.0" encoding="utf-8" ?>	<!-- Generator: Assembly 2.2 - http://assemblyapp.co -->	<svg version="1.1" xmlns="http://www.w3.org/2000/svg" xmlns:xlink="http://www.w3.org/1999/xlink" width="2048.00" height="2048.00" viewBox="0 0 2048.0 2048.0">		<g id="document" transform="matrix(1,0,0,1,1024.0,1024.0)">			<path d="M719.931,121.469 L-268.092,121.469 C-474.432,121.469 -643.119,-47.2178 -643.119,-253.558 C-643.119,-459.898 -474.432,-628.585 -268.092,-628.585 C-155.132,-628.585 -49.7023,-580.389 24.0981,-491.527 C39.1595,-473.453 67.776,-470.441 85.8496,-485.502 C103.923,-500.564 106.935,-529.18 91.8741,-547.254 C3.01228,-654.189 -126.515,-715.941 -265.079,-715.941 C-522.628,-715.941 -728.968,-506.588 -728.968,-253.558 C-728.968,-0.527715 -519.616,208.825 -266.585,208.825 L721.437,208.825 C745.536,208.825 765.115,190.751 765.115,165.147 C765.115,139.543 744.029,121.469 719.931,121.469 Z M-506.06,-253.558 C-506.06,-384.591 -399.125,-493.033 -266.585,-493.033 C-195.797,-493.033 -128.021,-461.404 -82.8373,-407.183 C-67.7759,-389.11 -39.1594,-386.098 -21.0858,-401.159 C-3.01225,-416.22 1.72363e-05,-444.837 -15.0613,-462.91 C-76.8127,-538.217 -168.687,-581.895 -266.585,-581.895 C-447.321,-581.895 -593.416,-435.8 -593.416,-255.064 C-593.416,-74.3282 -447.321,71.7667 -266.585,71.7667 L623.539,71.7667 C647.637,71.7667 667.217,53.6931 667.217,28.0888 C667.217,2.48456 649.143,-15.589 623.539,-15.589 L-268.092,-15.589 C-399.125,-14.0829 -506.06,-122.524 -506.06,-253.558 Z M-367.496,-253.558 C-367.496,-307.779 -322.312,-352.963 -268.092,-352.963 C-237.969,-352.963 -209.352,-339.407 -191.279,-316.815 C-176.217,-298.742 -147.601,-295.73 -129.527,-310.791 C-111.454,-325.852 -108.442,-354.469 -123.503,-372.542 C-161.156,-416.22 -212.365,-440.318 -269.598,-440.318 C-373.521,-440.318 -457.864,-355.975 -457.864,-252.052 C-457.864,-148.129 -373.521,-63.7853 -269.598,-63.7853 L525.64,-63.7853 C549.738,-63.7853 569.318,-81.8589 569.318,-107.463 C569.318,-133.067 551.244,-148.129 528.652,-148.129 L-266.585,-148.129 C-322.312,-154.153 -367.496,-199.337 -367.496,-253.558 Z " fill="#4d88d9" fill-opacity="1.00" />			<path d="M-508.067,570.926 C-508.067,560.662 -511.659,551.766 -518.844,544.239 C-526.371,537.054 -535.266,533.462 -545.53,533.462 C-555.11,533.462 -562.295,533.462 -567.085,533.462 C-535.608,466.062 -512.001,415.597 -496.263,382.068 C-534.24,382.068 -562.637,382.068 -581.454,382.068 C-608.825,449.126 -629.353,499.591 -643.038,533.462 C-650.223,533.462 -655.697,533.462 -659.46,533.462 C-659.46,466.062 -659.46,415.597 -659.46,382.068 C-692.989,382.068 -718.136,382.068 -734.901,382.068 C-734.901,466.233 -734.901,539.792 -734.901,602.744 C-734.901,665.696 -734.901,718.214 -734.901,760.296 C-701.372,760.296 -676.225,760.296 -659.46,760.296 C-659.46,692.896 -659.46,642.431 -659.46,608.902 C-625.589,608.902 -600.272,608.902 -583.507,608.902 C-583.507,676.302 -583.507,726.767 -583.507,760.296 C-549.978,760.296 -524.831,760.296 -508.067,760.296 C-508.067,676.131 -508.067,613.008 -508.067,570.926 Z M-219.752,760.296 C-219.752,609.073 -219.752,495.485 -219.752,419.532 C-219.752,409.268 -223.344,400.373 -230.529,392.846 C-238.056,385.661 -246.951,382.068 -257.215,382.068 C-324.615,382.068 -375.08,382.068 -408.609,382.068 C-419.215,382.068 -428.11,385.661 -435.295,392.846 C-442.822,400.373 -446.586,409.268 -446.586,419.532 C-446.586,466.746 -446.586,508.144 -446.586,543.726 C-446.586,578.966 -446.586,608.389 -446.586,631.996 C-446.586,689.132 -446.586,731.899 -446.586,760.296 C-413.057,760.296 -387.91,760.296 -371.145,760.296 C-371.145,692.896 -371.145,642.431 -371.145,608.902 C-337.274,608.902 -311.956,608.902 -295.192,608.902 C-295.192,676.302 -295.192,726.767 -295.192,760.296 C-261.663,760.296 -236.516,760.296 -219.752,760.296 Z M-295.192,533.462 C-328.721,533.462 -354.039,533.462 -371.145,533.462 C-371.145,499.591 -371.145,474.273 -371.145,457.509 C-337.274,457.509 -311.956,457.509 -295.192,457.509 C-295.192,485.221 -295.192,506.091 -295.192,520.119 C-295.192,525.935 -295.192,530.383 -295.192,533.462 Z M-94.6339,684.856 C-94.6339,634.22 -94.6339,533.291 -94.6339,382.068 C-106.951,382.068 -132.097,382.068 -170.074,382.068 C-170.074,413.545 -170.074,460.759 -170.074,523.711 C-170.074,586.664 -170.074,665.525 -170.074,760.296 C-166.995,760.296 -160.665,760.296 -151.086,760.296 C-141.506,760.296 -122.689,760.296 -94.6339,760.296 C-69.3161,760.296 -18.8515,760.296 56.7598,760.296 C56.7598,743.531 56.7598,718.385 56.7598,684.856 C23.2308,684.856 -27.2337,684.856 -94.6339,684.856 Z M106.437,760.296 C119.096,760.296 144.243,760.296 181.878,760.296 C181.878,747.637 181.878,722.49 181.878,684.856 C169.561,684.856 144.414,684.856 106.437,684.856 C106.437,691.014 106.437,700.252 106.437,712.568 C106.437,725.227 106.437,741.137 106.437,760.296 Z M382.949,495.485 C416.478,495.485 441.625,495.485 458.389,495.485 C458.389,461.956 458.389,436.639 458.389,419.532 C458.389,409.268 454.797,400.373 447.612,392.846 C440.085,385.661 431.19,382.068 420.926,382.068 C353.526,382.068 303.061,382.068 269.532,382.068 C258.926,382.068 250.03,385.661 242.846,392.846 C235.319,400.373 231.555,409.268 231.555,419.532 C231.555,461.614 231.555,498.565 231.555,530.383 C231.555,561.517 231.555,587.519 231.555,608.389 C231.555,659.025 231.555,697.001 231.555,722.319 C231.555,732.925 235.319,741.821 242.846,749.006 C250.03,756.532 258.926,760.296 269.532,760.296 C336.59,760.296 387.055,760.296 420.926,760.296 C431.19,760.296 440.085,756.532 447.612,749.006 C454.797,741.821 458.389,732.925 458.389,722.319 C458.389,672.026 458.389,634.22 458.389,608.902 C458.389,575.373 458.389,550.227 458.389,533.462 C408.096,533.462 370.29,533.462 344.972,533.462 C344.972,566.991 344.972,592.138 344.972,608.902 C361.737,608.902 374.396,608.902 382.949,608.902 C382.949,642.431 382.949,667.749 382.949,684.856 C349.42,684.856 324.102,684.856 306.996,684.856 C306.996,583.927 306.996,508.144 306.996,457.509 C340.867,457.509 366.184,457.509 382.949,457.509 C382.949,474.273 382.949,486.932 382.949,495.485 Z M659.46,495.485 C692.989,495.485 718.136,495.485 734.901,495.485 C734.901,461.956 734.901,436.639 734.901,419.532 C734.901,409.268 731.308,400.373 724.124,392.846 C716.597,385.661 707.701,382.068 697.437,382.068 C630.037,382.068 579.573,382.068 546.044,382.068 C535.437,382.068 526.542,385.661 519.357,392.846 C511.83,400.373 508.067,409.268 508.067,419.532 C508.067,461.614 508.067,498.565 508.067,530.383 C508.067,561.517 508.067,587.519 508.067,608.389 C508.067,659.025 508.067,697.001 508.067,722.319 C508.067,732.925 511.83,741.821 519.357,749.006 C526.542,756.532 535.437,760.296 546.044,760.296 C613.101,760.296 663.566,760.296 697.437,760.296 C707.701,760.296 716.597,756.532 724.124,749.006 C731.308,741.821 734.901,732.925 734.901,722.319 C734.901,672.026 734.901,634.22 734.901,608.902 C734.901,575.373 734.901,550.227 734.901,533.462 C684.607,533.462 646.802,533.462 621.484,533.462 C621.484,566.991 621.484,592.138 621.484,608.902 C638.248,608.902 650.907,608.902 659.46,608.902 C659.46,642.431 659.46,667.749 659.46,684.856 C625.931,684.856 600.614,684.856 583.507,684.856 C583.507,583.927 583.507,508.144 583.507,457.509 C617.378,457.509 642.696,457.509 659.46,457.509 C659.46,474.273 659.46,486.932 659.46,495.485 Z " fill="#4d88d9" fill-opacity="1.00" />		</g>	</svg>